<?xml version="1.0" encoding="utf-8"?>
<!-- Generator: Adobe Illustrator 23.0.4, SVG Export Plug-In . SVG Version: 6.00 Build 0)  -->
<svg version="1.1" id="Layer_1" xmlns="http://www.w3.org/2000/svg" xmlns:xlink="http://www.w3.org/1999/xlink" x="0px" y="0px"
	 viewBox="0 0 372 289" style="enable-background:new 0 0 372 289;" xml:space="preserve">
<style type="text/css">
	.st0{display:none;}
	.st1{display:inline;}
	.st2{fill:#F8F293;stroke:#000000;stroke-width:5;stroke-miterlimit:10;}
	.st3{fill:#F4BED7;stroke:#000000;stroke-width:5;stroke-miterlimit:10;}
	.st4{fill:#CBB1D5;stroke:#000000;stroke-width:5.072;stroke-miterlimit:10;}
	.st5{fill:#C9EAF3;}
	.st6{fill:#7D7E82;}
	.st7{fill:#FFFFFF;stroke:#000000;stroke-width:2;stroke-miterlimit:10;}
	.st8{fill:#9E9D9E;stroke:#000000;stroke-width:5;stroke-miterlimit:10;}
	.st9{fill:none;stroke:#000000;stroke-width:7;stroke-linecap:round;stroke-linejoin:round;stroke-miterlimit:10;}
</style>
<g class="st0">
	<g id="EY2rhG.tif" class="st1">
		
			<image style="overflow:visible;enable-background:new    ;" width="902" height="902" id="Layer_0_1_" xlink:href="55D4FB97BEB7AB4B.png"  transform="matrix(0.4789 0 0 0.4789 -611.8329 -128.5)">
		</image>
	</g>
	<g id="H5kVOp.tif" class="st1">
		
			<image style="overflow:visible;enable-background:new    ;" width="1001" height="753" xlink:href="55D4FB97BEB7AB49.png"  transform="matrix(0.5118 0 0 0.5118 450.0867 -105.1831)">
		</image>
	</g>
</g>
<g>
	<path class="st2" d="M246.5,73.5H126c-6.6,0-12-5.4-12-12l11.4-45c0-6.6,5.4-12,12-12l92.8,1.2c5.8,0,10.1,4.3,11.8,9.6
		c1.2,3.7,16.5,46.2,16.5,46.2C258.5,68.1,253.1,73.5,246.5,73.5z"/>
	<path class="st2" d="M78.4,87.3H60.6c-6.1,0-11.1-5-11.1-11.1V50.1c0-6.1,5-11.1,11.1-11.1h17.8c6.1,0,11.1,5,11.1,11.1v26.1
		C89.5,82.3,84.5,87.3,78.4,87.3z"/>
	<path class="st3" d="M318.3,283.5H54.2c-27,0-49.2-22.1-49.2-49.2V108.2C5,81.1,27.1,59,54.2,59h264.2c27,0,49.2,22.1,49.2,49.2
		v126.2C367.5,261.4,345.4,283.5,318.3,283.5z"/>
	<path class="st2" d="M5,108.2C5,81.1,27.1,59,54.2,59h264.2c27,0,49.2,22.1,49.2,49.2H5z"/>
	<path class="st4" d="M286.2,59h30.7c27.8,0,50.6,22.1,50.6,49.2h-79.9L286.2,59z"/>
	<g>
		<circle class="st5" cx="186.2" cy="173.8" r="86.4"/>
		<path d="M186.2,89.7c46.4,0,84.1,37.7,84.1,84.1s-37.7,84.1-84.1,84.1s-84.1-37.7-84.1-84.1S139.9,89.7,186.2,89.7 M186.2,85.1
			c-48.9,0-88.6,39.7-88.6,88.6s39.7,88.6,88.6,88.6s88.6-39.7,88.6-88.6S235.2,85.1,186.2,85.1L186.2,85.1z"/>
	</g>
	<path class="st6" d="M199.5,109.9c1.8,6,2.8,12.3,2.8,18.9c0,35.6-28.9,64.5-64.5,64.5c-4.6,0-9-0.5-13.3-1.4
		c8.1,26.4,32.6,45.6,61.7,45.6c35.6,0,64.5-28.9,64.5-64.5C250.8,142,228.8,116.1,199.5,109.9z"/>
	<g>
		<path d="M186.2,109.2c35.6,0,64.5,28.9,64.5,64.5s-28.9,64.5-64.5,64.5s-64.5-28.9-64.5-64.5S150.6,109.2,186.2,109.2
			 M186.2,104.2c-38.3,0-69.5,31.2-69.5,69.5s31.2,69.5,69.5,69.5s69.5-31.2,69.5-69.5S224.6,104.2,186.2,104.2L186.2,104.2z"/>
	</g>
	<path class="st7" d="M217.2,53.6h-62c-6.6,0-12-5.4-12-12v-18c0-6.6,5.4-12,12-12h62c6.6,0,12,5.4,12,12v18
		C229.2,48.2,223.9,53.6,217.2,53.6z"/>
	<path class="st8" d="M333.3,96.7h-21.2c-6.6,0-12-5.4-12-12v-0.8c0-6.6,5.4-12,12-12h21.2c6.6,0,12,5.4,12,12v0.8
		C345.3,91.3,339.9,96.7,333.3,96.7z"/>
	<path class="st9" d="M187,128.8c24.4,2.2,41,18.3,44.1,42.4"/>
</g>
</svg>
